<svg xmlns="http://www.w3.org/2000/svg" xmlns:xlink="http://www.w3.org/1999/xlink" version="1.1" x="0px" y="0px" viewBox="0 0 100 125" enable-background="new 0 0 100 100" xml:space="preserve"><path fill="#ffffff" d="M97.598,79.038c-0.815-0.056-2.137-0.127-2.137-0.127l-0.018-0.831l-0.164-0.271l-0.201-0.004v-0.938  l-0.139-0.229v-5.205c0.403,0.024,0.785,0.059,1.11,0.106v-0.981c-0.268-0.404-0.643-0.785-1.11-1.146v-0.766v-7.291v-4.859  l-0.181-0.148v-4.408l-0.028-0.112v-4.005l-0.269-0.328v-0.292h-0.235v0.292l-0.267,0.378h-0.42l-0.185,0.176L91.42,48.05  l-0.184-0.178l-0.42-0.02l-0.271-0.328v-0.292h-0.233v0.292l-0.271,0.328v0.981l-0.108-0.021  c-0.379,1.999-2.236,10.688-4.478,14.733c-3.308-5.034-6.994-17.199-10.095-29.537C72.8,23.82,70.605,13.346,69.396,7.327V3.589  l-0.772-0.952V1.793h-0.687v0.844l-0.771,1.008h-1.219L65.42,4.156l-5.607-0.003l-0.533-0.511h-1.219V3.498L57.29,2.546V1.703  h-0.687v0.843L55.83,3.499v1.304c-1.785,2.751-4.833,7.396-8.182,12.305c-5.301,7.768-11.724,16.765-16.243,21.742  c-4.23,4.657-8.104,8.519-11.643,11.693l-2.133,1.896c-0.465,0.399-1.756,1.478-1.756,1.478c-6.036,4.972-10.958,7.854-14.88,9.464  v9.508c1.706-0.053,13.743-0.611,36.812-1.686h11.047v-1.122c2.755-0.276,5.099-0.511,6.375-0.621v17.526l-0.4,0.664v2.713  l-0.59,0.016l-0.473,0.782l-0.052,2.407c0,0-3.829,0.211-6.187,0.369c-2.358,0.153-4.09,0.633-4.09,0.633v0.938  c0,0,2.83,0.738,8.283,0.738c1.562,0,20.095,0,21.654,0c5.457,0,8.282-0.738,8.282-0.738V94.57c0,0-1.729-0.479-4.088-0.633  c-2.358-0.158-6.188-0.369-6.188-0.369l-0.053-2.407l-0.471-0.782L70.4,90.366v-2.625L70,87.079V68.648  c10.859-0.404,16.551,0.254,19.836,1.933v6.089l-0.141,0.229v0.908l-0.154,0.002l-0.162,0.271l-0.021,0.831  c0,0-1.319,0.071-2.135,0.127c-0.811,0.056-1.41,0.219-1.41,0.219v0.324c0,0,0.978,0.254,2.859,0.254c0.275,0,2.057,0.04,3.822,0.04  c1.699,0,3.387-0.04,3.652-0.04c1.883,0,2.858-0.254,2.858-0.254v-0.324C99.008,79.257,98.41,79.094,97.598,79.038z M1.826,63.842  l-0.467,0.014l0.466-0.197h0.001V63.842z M3.581,63.801l-1.377,0.032v-0.342c0.448-0.2,0.906-0.416,1.377-0.648V63.801z   M5.337,63.761l-1.378,0.032v-1.139c0.449-0.227,0.908-0.469,1.378-0.725V63.761z M7.092,63.725l-1.377,0.027v-2.031  c0.449-0.252,0.91-0.519,1.377-0.8V63.725z M8.848,63.689l-1.376,0.025v-3.023c0.45-0.274,0.908-0.563,1.376-0.865V63.689z   M10.605,63.659l-1.377,0.022v-4.104c0.451-0.299,0.91-0.609,1.377-0.932V63.659z M12.361,63.63l-1.377,0.022v-5.271  c0.451-0.316,0.91-0.646,1.377-0.988V63.63z M14.118,63.604l-1.378,0.021v-6.512c0.452-0.338,0.911-0.688,1.378-1.049V63.604z   M15.873,63.58l-1.377,0.018v-7.83c0.453-0.355,0.911-0.723,1.377-1.103V63.58z M17.629,63.557l-1.378,0.018v-9.219  c0.453-0.373,0.913-0.758,1.378-1.154V63.557z M19.384,63.439l-0.266,0.102l-1.111,0.014V52.877  c0.454-0.391,0.912-0.793,1.377-1.204V63.439z M21.14,63.521l-0.39,0.002l0.39-0.162V63.521z M21.14,62.73  c-0.464,0.201-0.922,0.388-1.378,0.566V51.335c0.454-0.403,0.913-0.819,1.378-1.25V62.73z M22.896,63.506l-1.378,0.012v-0.319  c0.457-0.199,0.915-0.411,1.378-0.634V63.506z M22.896,61.918c-0.463,0.227-0.922,0.443-1.378,0.646v-12.83  c0.454-0.42,0.914-0.853,1.378-1.295V61.918z M24.652,63.492l-1.377,0.012v-1.125c0.456-0.227,0.915-0.462,1.377-0.711V63.492z   M24.652,61.008c-0.462,0.253-0.921,0.495-1.377,0.723V48.078c0.455-0.437,0.913-0.882,1.377-1.34V61.008z M26.408,63.482  l-1.378,0.009v-2.029c0.457-0.25,0.915-0.511,1.378-0.786V63.482z M26.408,59.997c-0.463,0.278-0.921,0.547-1.378,0.801V46.363  c0.455-0.451,0.914-0.911,1.378-1.382V59.997z M28.164,63.475l-1.378,0.008v-3.035c0.457-0.275,0.916-0.563,1.378-0.864V63.475z   M28.164,58.889c-0.462,0.305-0.921,0.6-1.378,0.881V44.596c0.455-0.464,0.914-0.939,1.378-1.422V58.889z M29.92,63.471  l-1.377,0.004v-4.142c0.456-0.302,0.915-0.618,1.377-0.946V63.471z M29.92,57.675c-0.462,0.332-0.921,0.653-1.377,0.96V42.778  c0.454-0.477,0.913-0.964,1.377-1.461V57.675z M31.676,63.468l-1.378,0.003v-5.354c0.457-0.329,0.916-0.671,1.378-1.025V63.468z   M31.676,56.359c-0.462,0.359-0.921,0.705-1.378,1.041V40.911c0.455-0.49,0.913-0.991,1.378-1.5V56.359z M33.432,63.466h-1.377  v-6.668c0.457-0.354,0.917-0.726,1.377-1.108V63.466z M33.432,54.938c-0.462,0.388-0.921,0.763-1.377,1.123V38.994  c0.443-0.494,0.902-1.024,1.377-1.586V54.938z M35.188,63.469l-1.378-0.003v-8.092c0.458-0.383,0.917-0.778,1.378-1.188V63.469z   M35.188,53.407c-0.46,0.417-0.92,0.819-1.378,1.209V36.957c0.448-0.538,0.908-1.102,1.378-1.689V53.407z M36.944,63.475  l-1.378-0.004v-9.625c0.458-0.412,0.917-0.835,1.378-1.272V63.475z M36.944,51.77L36.706,52c-0.382,0.363-0.761,0.719-1.14,1.064  V34.794c0.452-0.571,0.911-1.159,1.378-1.765V51.77z M38.699,63.48l-1.378-0.006V52.21c0.458-0.442,0.917-0.907,1.378-1.392V63.48z   M38.699,49.975c-0.462,0.494-0.921,0.968-1.378,1.421V32.537c0.455-0.594,0.915-1.203,1.378-1.823V49.975z M40.455,63.491  l-1.378-0.009V50.42c0.458-0.49,0.917-1,1.378-1.524V63.491z M40.455,48.013c-0.46,0.534-0.92,1.052-1.378,1.551V30.207  c0.456-0.614,0.916-1.238,1.378-1.87V48.013z M42.21,63.506l-1.377-0.012V48.462c0.458-0.53,0.918-1.078,1.377-1.64V63.506z   M42.21,45.9c-0.459,0.571-0.918,1.129-1.377,1.669V27.817c0.458-0.631,0.918-1.268,1.377-1.909V45.9z M43.966,63.52l-1.377-0.014  v-17.15c0.458-0.568,0.919-1.152,1.377-1.747V63.52z M43.966,43.655c-0.458,0.604-0.917,1.196-1.377,1.774V25.38  c0.461-0.647,0.921-1.294,1.377-1.944V43.655z M45.721,63.538l-1.376-0.019V44.114c0.459-0.604,0.919-1.219,1.376-1.844V63.538z   M45.721,41.283c-0.457,0.634-0.917,1.258-1.376,1.871V22.897c0.463-0.659,0.922-1.317,1.376-1.974V41.283z M47.478,63.559  l-1.377-0.016V41.75c0.462-0.637,0.921-1.283,1.377-1.935V63.559z M47.478,38.799c-0.456,0.661-0.915,1.314-1.377,1.958V20.379  c0.465-0.672,0.926-1.339,1.377-2V38.799z M49.234,63.583l-1.377-0.021V39.271c0.461-0.665,0.921-1.34,1.377-2.02V63.583z   M49.234,36.208c-0.456,0.687-0.916,1.367-1.377,2.042V17.826l0.27-0.394l1.107-1.631V36.208z M50.991,63.611l-1.379-0.021V36.687  c0.464-0.695,0.922-1.395,1.379-2.098V63.611z M50.991,33.519c-0.454,0.71-0.915,1.417-1.379,2.119V15.242l1.379-2.047V33.519z   M52.746,63.641l-1.375-0.021V34.002c0.461-0.721,0.92-1.445,1.375-2.17V63.641z M52.746,30.735  c-0.455,0.732-0.914,1.463-1.375,2.191V12.63l1.375-2.068V30.735z M54.502,63.677l-1.379-0.026V31.225  c0.467-0.747,0.928-1.495,1.379-2.241V63.677z M54.502,27.865c-0.451,0.751-0.912,1.505-1.379,2.26V9.991l1.379-2.088V27.865z   M55.746,28.198l-0.518,0.43v14.088v20.978l-0.351-0.008V28.361l0.865-1.443h0.002L55.746,28.198L55.746,28.198z M55.818,25.588  l-0.939,1.646V7.325l0.951-1.454L55.818,25.588z M65.416,7.959h0.107l-0.107,0.208V7.959z M65.414,34.324h0.09  c0.348,1.09,0.703,2.177,1.059,3.262v7.369h-0.389l-0.562,0.632h-0.196L65.414,34.324L65.414,34.324z M65.414,51.443l0.043,0.162  l0.391,0.688l0.144,0.756l0.069,1.425l0.502,0.074v9.458c-0.592-0.019-1.147-0.032-1.147-0.032L65.414,51.443L65.414,51.443z   M63.658,7.959h1.379v0.944c-0.426,0.826-0.889,1.711-1.379,2.644V7.959z M63.658,12.809c0.492-0.926,0.953-1.801,1.379-2.623v0.769  v5.639l-1.379,0.007V12.809z M63.658,20.393h1.379v9.228l-0.363-0.001c-0.346-1.155-0.686-2.305-1.016-3.441V20.393z M63.658,28.295  l0.395,1.322h-0.395V28.295z M63.658,34.324h1.379v11.263l-1.379-0.003V34.324z M63.658,50.979l1.379,0.002v12.981l-1.379-0.046  V50.979z M61.904,7.958l1.377,0.001v4.307c-0.438,0.828-0.896,1.692-1.377,2.581V7.958z M61.904,16.078  c0.479-0.883,0.938-1.738,1.377-2.558v3.083l-1.199,0.006h-0.178V16.078z M63.281,20.392v4.467  c-0.434-1.521-0.848-3.014-1.244-4.462l1.111-0.005H63.281z M61.904,22.165c0.438,1.576,0.896,3.197,1.377,4.843v2.61h-1.377V22.165  z M61.904,34.324h0.297h1.08v11.26h-1.377V34.324L61.904,34.324z M61.904,50.977l1.377,0.002v12.926l-1.377-0.043V50.977z   M63.775,68.958l-0.871,1.021h-0.525l-0.775-0.905L63.775,68.958z M62.771,80.359h-0.26l-2.548-2.982v-0.479h5.315v0.52  L62.771,80.359z M62.881,82.701l2.635,3.07v0.263h-5.707v-0.312l2.592-3.019v-0.003H62.881z M59.965,75.812v-0.496l2.568-2.99h0.217  l2.531,2.951v0.535H59.965z M61.523,50.977V63.85l-1.375-0.039V50.977H61.523z M60.148,45.583V34.321l1.375,0.001v11.261H60.148z   M60.148,7.956l1.375,0.002v7.591L61,16.521c-0.301-1.139-0.586-2.234-0.852-3.277V7.956z M60.148,15.631l0.256,0.979h-0.256V15.631  z M60.146,20.408l1.272-0.007l0.104,0.39l0,0v8.826h-1.377V20.408z M60.025,69.154l1.42,1.65v0.881l-2.408,2.819h-0.373V69.23  L60.025,69.154z M59.771,63.803l-1.105-0.029v-9.24l0.412-0.062l0.07-1.426l0.141-0.756l0.391-0.688l0.09-0.342h0.002V63.803  L59.771,63.803z M58.666,44.95v-9.097l0.338-0.126l0.07-0.868l0.414-0.54l0.281,0.002V45.58h-0.238l-0.564-0.63H58.666z   M59.414,8.179V7.955h0.355v3.799c-0.326-1.297-0.623-2.497-0.888-3.575H59.414z M58.393,8.665c0.396,1.626,0.855,3.481,1.377,5.505  v1.604l-0.006,0.836l-0.531-0.511h-0.84V8.665z M58.393,22.378c0.379-0.665,0.75-1.32,1.115-1.968l0.262-0.002v9.208h-0.342  l-0.562-0.633h-0.201v-0.355L58.393,28.4V22.378z M58.664,84.729v-6.207v-0.394h0.527L59.188,78.4l2.258,2.629v0.881l-2.408,2.818  H58.664L58.664,84.729z M66.162,90.275l-7.094-0.006l-0.022-2.656l0.545-0.489h6.08l0.49,0.858L66.162,90.275L66.162,90.275z   M66.562,78.613v6.271l-0.191-0.011l-2.52-2.947v-0.912l2.479-2.886h0.232V78.613z M66.566,74.506h-0.32l-2.395-2.804v-0.908  l1.655-1.93l1.06-0.06V74.506z M66.793,28.53l-0.23,0.188v0.27h-0.196l-0.562,0.632h-0.388l0,0v-9.228h0.446v0.225h0.392  l0.539,0.992L66.793,28.53L66.793,28.53z M66.793,9.35v6.73h-0.797l-0.58,0.511v-5.636V9.458l0.656-1.277v0.001h0.609l0.11,0.142  L66.793,9.35L66.793,9.35z M88.398,57.559c0.188-0.637,0.369-1.276,0.539-1.904v10.054c-0.23,0.171-0.472,0.258-0.804,0.235v-7.521  C88.225,58.132,88.312,57.846,88.398,57.559z M87.105,61.35c0.285-0.721,0.555-1.479,0.805-2.24l0.025,6.795  c0.041,0.013,0.088,0.021,0.157,0.035c-0.004,0-0.01,0-0.016,0c-0.048-0.01-0.095-0.021-0.168-0.043  c-0.263-0.078-0.531-0.226-0.806-0.435V61.35H87.105z M85.053,63.902l0.105,0.156l-0.105,0.162V63.902z M70.453,64.18l-0.451-0.023  V47.163l0.451,1.137V64.18z M70.451,15.343v31.366l-0.449-1.173V28.718l-0.357-0.295V11.499c0.246,1.197,0.517,2.484,0.81,3.844  H70.451z M71.479,64.242l-0.807-0.049V48.848c0.268,0.657,0.537,1.302,0.807,1.935V64.242z M71.479,49.28  c-0.27-0.656-0.539-1.324-0.807-2.003V16.378c0.256,1.188,0.527,2.426,0.807,3.701V49.28z M72.506,64.311l-0.807-0.054v-12.96  c0.268,0.619,0.535,1.225,0.807,1.816V64.311z M72.506,51.701c-0.271-0.615-0.539-1.246-0.807-1.885V21.077  c0.258,1.162,0.527,2.353,0.807,3.563V51.701z M73.531,64.389l-0.805-0.062V53.594c0.268,0.576,0.535,1.141,0.805,1.688V64.389z   M73.535,53.965c-0.271-0.572-0.539-1.16-0.809-1.764V25.6c0.264,1.128,0.53,2.274,0.809,3.428V53.965z M74.561,64.471l-0.807-0.064  v-8.68c0.268,0.534,0.533,1.055,0.807,1.559V64.471z M74.561,56.062c-0.272-0.528-0.539-1.072-0.807-1.633V29.948  c0.262,1.092,0.533,2.19,0.807,3.291V56.062z M75.588,64.562l-0.807-0.07v-6.799c0.266,0.486,0.537,0.961,0.807,1.418V64.562z   M75.588,57.984c-0.27-0.479-0.537-0.979-0.807-1.493V34.123c0.264,1.051,0.535,2.102,0.807,3.148V57.984z M76.615,64.663  l-0.807-0.077v-5.104c0.27,0.441,0.534,0.867,0.807,1.272V64.663z M76.615,59.729c-0.271-0.431-0.537-0.881-0.807-1.351V38.115  c0.266,1.006,0.534,2.008,0.807,3V59.729z M77.643,64.771l-0.809-0.086v-3.6c0.27,0.393,0.537,0.768,0.809,1.123V64.771z   M77.643,61.275c-0.271-0.377-0.539-0.776-0.809-1.197v-18.16c0.27,0.96,0.537,1.909,0.809,2.847V61.275z M78.668,64.889  l-0.807-0.094v-2.301c0.27,0.342,0.537,0.664,0.807,0.963V64.889z M78.67,62.617c-0.271-0.321-0.537-0.666-0.807-1.033V45.523  c0.266,0.91,0.533,1.806,0.807,2.684V62.617z M79.699,65.016l-0.809-0.101V63.7c0.27,0.286,0.536,0.552,0.809,0.792V65.016z   M79.699,63.736c-0.27-0.26-0.539-0.549-0.809-0.857V48.921c0.268,0.855,0.536,1.692,0.809,2.509V63.736z M79.918,65.043v-0.355  c0.182,0.153,0.361,0.297,0.543,0.431L79.918,65.043z M80.723,64.62c-0.266-0.197-0.537-0.422-0.805-0.673V52.094  c0.268,0.797,0.537,1.571,0.805,2.323V64.62z M81.75,65.241c-0.268-0.125-0.535-0.282-0.807-0.466v-9.748  c0.27,0.731,0.537,1.438,0.807,2.121V65.241z M82.777,65.465l-0.805-0.125V57.7c0.268,0.664,0.534,1.297,0.805,1.901V65.465z   M83.805,65.497c-0.084,0.041-0.168,0.073-0.25,0.099l-0.559-0.095v-5.41c0.271,0.589,0.539,1.142,0.809,1.658V65.497z   M84.832,65.831l-0.396-0.074c0.135-0.106,0.269-0.226,0.396-0.358V65.831z M84.832,64.538c-0.266,0.356-0.535,0.64-0.807,0.827  V62.17c0.271,0.501,0.539,0.966,0.807,1.389V64.538z M85.859,66.04c-0.269-0.06-0.535-0.11-0.808-0.165V65.15  c0.152-0.183,0.31-0.385,0.455-0.604c0.117,0.154,0.236,0.303,0.353,0.443V66.04z M86.889,66.268  c-0.27-0.062-0.539-0.121-0.807-0.182v-0.842c0.268,0.299,0.535,0.55,0.807,0.747V66.268z M86.889,65.279  c-0.27-0.234-0.537-0.522-0.807-0.866v-0.819c0.281-0.519,0.547-1.096,0.807-1.701V65.279z M88.939,66.794  c-0.267-0.073-0.531-0.147-0.803-0.265c-0.058-0.004-0.113-0.012-0.228-0.012c-0.265-0.066-0.531-0.135-0.806-0.199v-0.174  c0.271,0.174,0.541,0.291,0.859,0.363c0.059,0.01,0.113,0.018,0.17,0.021c0.279,0.022,0.547-0.035,0.803-0.166h0.002v0.431H88.939z   M89.838,67.057c-0.223-0.07-0.447-0.137-0.676-0.201v-0.621c0.236-0.158,0.461-0.377,0.676-0.646V67.057z M89.967,56.42  l-0.129,0.107v4.861v3.227c-0.217,0.369-0.443,0.678-0.676,0.904V54.818c0.32-1.235,0.592-2.391,0.805-3.344V56.42z M93.27,49.361  h0.224v0.078h0.094c-0.08,0.588-0.185,1.327-0.315,2.161v-2.239H93.27z M92.24,49.362l0.918-0.001v2.931l-0.01,0.058l-0.908-0.002  V49.362z M93.158,55.656v1.181h-0.236C93.004,56.441,93.084,56.048,93.158,55.656z M92.93,53.657  c-0.18,1.015-0.387,2.096-0.617,3.18h-0.069l-0.002-3.183L92.93,53.657z M92.24,59.727c0.111-0.418,0.217-0.843,0.314-1.264  l0.604-0.001v3.886H92.24V59.727z M92.24,64.209h0.338h0.58v4.127c-0.291-0.145-0.594-0.281-0.918-0.416V64.209z M92.424,74.35  h-0.092l-0.867-1.014v-0.179h1.838v0.163L92.424,74.35z M92.463,75.159l0.895,1.042v0.107h-1.971v-0.091l0.91-1.06L92.463,75.159  L92.463,75.159z M91.463,64.209h0.668v3.664c-0.295-0.12-0.6-0.24-0.916-0.354v-2.457l0.006-0.14l0.051-0.261l0.136-0.236  L91.463,64.209z M91.451,62.35c0.244-0.697,0.475-1.442,0.68-2.203v2.201L91.451,62.35z M91.959,71.361l-0.826,0.968h-0.107v-1.048  C91.178,71.318,91.518,71.336,91.959,71.361z M91.465,72.781v-0.186l0.877-1.021h0.072l0.889,1.033v0.172l0,0h-1.838V72.781z   M91.281,49.44v-0.078h0.85l0,0v2.984l-0.725-0.005l-0.186-0.175l-0.007-2.727L91.281,49.44L91.281,49.44z M91.266,53.73v-0.076  h0.865v3.183l-0.842,0.001l-0.074-0.082L91.266,53.73z M91.215,58.582l0.092-0.119h0.642c-0.226,0.947-0.47,1.872-0.732,2.73l0,0  L91.215,58.582L91.215,58.582z M91.115,61.52l-0.09,0.279v-0.41v-2.396l0.09-0.035V61.52z M90.816,51.859v-2.21l0.168-0.209h0.129  v2.727h-0.268v-0.194L90.816,51.859z M90.896,54.165l0.217-0.403l-0.021,2.858h-0.066v-0.093l-0.18-0.149L90.896,54.165z   M91.023,65.441l0.09-0.014v2.055l-0.09-0.03V65.441z M91.025,75.912v-2.165V73.58h0.078l0.854,0.996v0.312L91.09,75.91  L91.025,75.912z M93.611,77.771l-2.447,0.002v-0.791l0.168-0.297h2.098l0.189,0.168L93.611,77.771z M93.75,73.717v2.143h-0.129  l-0.83-0.974v-0.305l0.779-0.907l-0.002-0.095h0.182V73.717z M93.75,72.329h-0.129l-0.822-0.965l0.951,0.021V72.329z M93.75,68.646  c-0.154-0.084-0.314-0.172-0.48-0.256v-4.183h0.074l0.057,0.217l0.136,0.236l0.051,0.261l0.021,0.492l0.144,0.021L93.75,68.646  L93.75,68.646z M93.752,61.355v0.772h-0.104l-0.193,0.22H93.27v-3.887l0.197-0.002l0.145,0.188l0.023,0.299l0.117,0.044V61.355  L93.752,61.355z M93.93,56.348l-0.441,0.489H93.27v-1.756c0.088-0.459,0.164-0.909,0.238-1.345h0.133l0.289,0.438V56.348z   M93.957,51.827l-0.027,0.112v0.229h-0.16c0.068-0.438,0.133-0.853,0.188-1.233L93.957,51.827L93.957,51.827z"/><text x="0" y="115" fill="#ffffff" font-size="5px" font-weight="bold" font-family="'Helvetica Neue', Helvetica, Arial-Unicode, Arial, Sans-serif">Created by Simon Child</text><text x="0" y="120" fill="#ffffff" font-size="5px" font-weight="bold" font-family="'Helvetica Neue', Helvetica, Arial-Unicode, Arial, Sans-serif">from the Noun Project</text></svg>